<?xml version="1.0" encoding="UTF-8" standalone="no"?>
<svg
   width="75.313057mm"
   height="175.31308mm"
   viewBox="0 0 75.313057 175.31308"
   version="1.1"
   id="svg1"
   xmlns="http://www.w3.org/2000/svg">
  <!-- rect1: x=60 y=40 w=15 h=175, group translate(-59.843466,-39.843471) applied -->
  <path id="rect1" d="M 0.156534 0.156525 L 15.156534 0.156525 L 15.156534 175.156525 L 0.156534 175.156525 Z" />
  <!-- ellipse1: cx=67.492607 cy=51 rx=4.5073938 ry=7.3699846, transform applied -->
  <path id="path2" d="M 12.156535 11.156529 A 4.5073938 7.3699846 0 1 0 3.141747 11.156529 A 4.5073938 7.3699846 0 1 0 12.156535 11.156529 Z" />
  <!-- rect1-0: x=80 y=40 w=15 h=175, transform applied -->
  <path id="rect1-0" d="M 20.156534 0.156529 L 35.156534 0.156529 L 35.156534 175.156529 L 20.156534 175.156529 Z" />
  <!-- rect2: x=100.01479 y=40 w=15 h=175, transform applied -->
  <path id="rect2" d="M 40.171324 0.156525 L 55.171324 0.156525 L 55.171324 175.156525 L 40.171324 175.156525 Z" />
  <!-- ellipse2: cx=107.50739 cy=51 rx=4.5073938 ry=7.3699846, transform applied -->
  <path id="ellipse2" d="M 52.171318 11.156529 A 4.5073938 7.3699846 0 1 0 43.156530 11.156529 A 4.5073938 7.3699846 0 1 0 52.171318 11.156529 Z" />
  <!-- rect1-0-0: x=120 y=40 w=15 h=175, transform applied -->
  <path id="rect1-0-0" d="M 60.156534 0.156529 L 75.156534 0.156529 L 75.156534 175.156529 L 60.156534 175.156529 Z" />
</svg>
